solid OpenSCAD_Model
  facet normal 0 -0.957826 0.287348
    outer loop
      vertex 18 0 0
      vertex 3.33333 3 10
      vertex 0 0 0
    endloop
  endfacet
  facet normal 0 -0.957826 0.287348
    outer loop
      vertex 3.33333 3 10
      vertex 18 0 0
      vertex 18 3 10
    endloop
  endfacet
  facet normal 0 0.957826 0.287348
    outer loop
      vertex 18 49.5 0
      vertex 3.33333 46.5 10
      vertex 18 46.5 10
    endloop
  endfacet
  facet normal 0 0.957826 0.287348
    outer loop
      vertex 3.33333 46.5 10
      vertex 18 49.5 0
      vertex 0 49.5 0
    endloop
  endfacet
  facet normal -0 0 1
    outer loop
      vertex 3.33333 46.5 10
      vertex 18 3 10
      vertex 18 46.5 10
    endloop
  endfacet
  facet normal 0 0 1
    outer loop
      vertex 18 3 10
      vertex 3.33333 46.5 10
      vertex 3.33333 3 10
    endloop
  endfacet
  facet normal 1 -0 0
    outer loop
      vertex 18 3 10
      vertex 18 49.5 0
      vertex 18 46.5 10
    endloop
  endfacet
  facet normal 1 0 0
    outer loop
      vertex 18 49.5 0
      vertex 18 3 10
      vertex 18 0 0
    endloop
  endfacet
  facet normal 0 0 -1
    outer loop
      vertex 18 0 0
      vertex 17 1 0
      vertex 18 49.5 0
    endloop
  endfacet
  facet normal 0 0 -1
    outer loop
      vertex 18 0 0
      vertex 1 1 0
      vertex 17 1 0
    endloop
  endfacet
  facet normal -0 0 -1
    outer loop
      vertex 1 1 0
      vertex 0 0 0
      vertex 1 48.5 0
    endloop
  endfacet
  facet normal 0 0 -1
    outer loop
      vertex 0 0 0
      vertex 1 1 0
      vertex 18 0 0
    endloop
  endfacet
  facet normal 0 0 -1
    outer loop
      vertex 17 48.5 0
      vertex 18 49.5 0
      vertex 17 1 0
    endloop
  endfacet
  facet normal 0 0 -1
    outer loop
      vertex 1 48.5 0
      vertex 18 49.5 0
      vertex 17 48.5 0
    endloop
  endfacet
  facet normal 0 0 -1
    outer loop
      vertex 1 48.5 0
      vertex 0 49.5 0
      vertex 18 49.5 0
    endloop
  endfacet
  facet normal 0 0 -1
    outer loop
      vertex 0 49.5 0
      vertex 1 48.5 0
      vertex 0 0 0
    endloop
  endfacet
  facet normal 0 0 -1
    outer loop
      vertex 11 22 0
      vertex 9.7 22.6 0
      vertex 11 24.05 0
    endloop
  endfacet
  facet normal 0 0 -1
    outer loop
      vertex 11 22 0
      vertex 8.3 22.6 0
      vertex 9.7 22.6 0
    endloop
  endfacet
  facet normal 0 0 -1
    outer loop
      vertex 7 22 0
      vertex 8.3 22.6 0
      vertex 11 22 0
    endloop
  endfacet
  facet normal 0 0 -1
    outer loop
      vertex 7 24.05 0
      vertex 8.3 22.6 0
      vertex 7 22 0
    endloop
  endfacet
  facet normal 0 0 -1
    outer loop
      vertex 8.3 22.6 0
      vertex 7 24.05 0
      vertex 8.3 24.05 0
    endloop
  endfacet
  facet normal -0 0 -1
    outer loop
      vertex 11 24.05 0
      vertex 9.7 22.6 0
      vertex 9.7 24.05 0
    endloop
  endfacet
  facet normal 0 0 -1
    outer loop
      vertex 8.3 25.45 0
      vertex 7 25.45 0
      vertex 8.3 26.9 0
    endloop
  endfacet
  facet normal 0 0 -1
    outer loop
      vertex 9.7 26.9 0
      vertex 11 25.45 0
      vertex 9.7 25.45 0
    endloop
  endfacet
  facet normal 0 0 -1
    outer loop
      vertex 11 25.45 0
      vertex 9.7 26.9 0
      vertex 11 27.5 0
    endloop
  endfacet
  facet normal 0 0 -1
    outer loop
      vertex 8.3 26.9 0
      vertex 11 27.5 0
      vertex 9.7 26.9 0
    endloop
  endfacet
  facet normal 0 0 -1
    outer loop
      vertex 8.3 26.9 0
      vertex 7 27.5 0
      vertex 11 27.5 0
    endloop
  endfacet
  facet normal 0 0 -1
    outer loop
      vertex 7 27.5 0
      vertex 8.3 26.9 0
      vertex 7 25.45 0
    endloop
  endfacet
  facet normal -0.948683 0 0.316228
    outer loop
      vertex 0 49.5 0
      vertex 3.33333 3 10
      vertex 3.33333 46.5 10
    endloop
  endfacet
  facet normal -0.948683 0 0.316228
    outer loop
      vertex 3.33333 3 10
      vertex 0 49.5 0
      vertex 0 0 0
    endloop
  endfacet
  facet normal 0 0.936329 -0.351123
    outer loop
      vertex 17 1 0
      vertex 3.77895 4 8
      vertex 17 4 8
    endloop
  endfacet
  facet normal 0 0.936329 -0.351123
    outer loop
      vertex 3.77895 4 8
      vertex 17 1 0
      vertex 1 1 0
    endloop
  endfacet
  facet normal -0 -0.936329 -0.351123
    outer loop
      vertex 17 48.5 0
      vertex 3.77895 45.5 8
      vertex 1 48.5 0
    endloop
  endfacet
  facet normal 0 -0.936329 -0.351123
    outer loop
      vertex 3.77895 45.5 8
      vertex 17 48.5 0
      vertex 17 45.5 8
    endloop
  endfacet
  facet normal 0 0 -1
    outer loop
      vertex 7 24.05 8
      vertex 8.3 25.45 8
      vertex 8.3 24.05 8
    endloop
  endfacet
  facet normal -0 0 -1
    outer loop
      vertex 8.3 25.45 8
      vertex 7 24.05 8
      vertex 7 25.45 8
    endloop
  endfacet
  facet normal 0 0 -1
    outer loop
      vertex 8.3 24.05 8
      vertex 9.7 24.05 8
      vertex 9.7 22.6 8
    endloop
  endfacet
  facet normal 0 0 -1
    outer loop
      vertex 9.7 24.05 8
      vertex 8.3 24.05 8
      vertex 9.7 25.45 8
    endloop
  endfacet
  facet normal 0 0 -1
    outer loop
      vertex 8.3 24.05 8
      vertex 9.7 22.6 8
      vertex 8.3 22.6 8
    endloop
  endfacet
  facet normal 0 0 -1
    outer loop
      vertex 8.3 25.45 8
      vertex 9.7 25.45 8
      vertex 8.3 24.05 8
    endloop
  endfacet
  facet normal 0 0 -1
    outer loop
      vertex 9.7 25.45 8
      vertex 8.3 25.45 8
      vertex 9.7 26.9 8
    endloop
  endfacet
  facet normal -0 0 -1
    outer loop
      vertex 9.7 26.9 8
      vertex 8.3 25.45 8
      vertex 8.3 26.9 8
    endloop
  endfacet
  facet normal 0 0 -1
    outer loop
      vertex 9.7 24.05 8
      vertex 11 25.45 8
      vertex 11 24.05 8
    endloop
  endfacet
  facet normal -0 0 -1
    outer loop
      vertex 11 25.45 8
      vertex 9.7 24.05 8
      vertex 9.7 25.45 8
    endloop
  endfacet
  facet normal 0 0 -1
    outer loop
      vertex 11 24.05 8
      vertex 14 12.25 8
      vertex 11 22 8
    endloop
  endfacet
  facet normal 0 0 -1
    outer loop
      vertex 14 12.25 8
      vertex 7 22 8
      vertex 11 22 8
    endloop
  endfacet
  facet normal 0 0 -1
    outer loop
      vertex 4 12.25 8
      vertex 7 24.05 8
      vertex 7 22 8
    endloop
  endfacet
  facet normal -0 0 -1
    outer loop
      vertex 7 24.05 8
      vertex 4 12.25 8
      vertex 7 25.45 8
    endloop
  endfacet
  facet normal 0 0 -1
    outer loop
      vertex 4 37.25 8
      vertex 7 25.45 8
      vertex 4 12.25 8
    endloop
  endfacet
  facet normal 0 0 -1
    outer loop
      vertex 4 12.25 8
      vertex 7 22 8
      vertex 14 12.25 8
    endloop
  endfacet
  facet normal 0 0 -1
    outer loop
      vertex 14 12.25 8
      vertex 17 4 8
      vertex 14 7.25 8
    endloop
  endfacet
  facet normal 0 0 -1
    outer loop
      vertex 3.77895 4 8
      vertex 14 7.25 8
      vertex 17 4 8
    endloop
  endfacet
  facet normal 0 0 -1
    outer loop
      vertex 3.77895 4 8
      vertex 4 12.25 8
      vertex 4 7.25 8
    endloop
  endfacet
  facet normal -0 0 -1
    outer loop
      vertex 4 12.25 8
      vertex 3.77895 4 8
      vertex 4 37.25 8
    endloop
  endfacet
  facet normal 0 0 -1
    outer loop
      vertex 3.77895 45.5 8
      vertex 4 37.25 8
      vertex 3.77895 4 8
    endloop
  endfacet
  facet normal -0 0 -1
    outer loop
      vertex 14 7.25 8
      vertex 3.77895 4 8
      vertex 4 7.25 8
    endloop
  endfacet
  facet normal 0 0 -1
    outer loop
      vertex 17 4 8
      vertex 14 12.25 8
      vertex 17 45.5 8
    endloop
  endfacet
  facet normal 0 0 -1
    outer loop
      vertex 14 37.25 8
      vertex 17 45.5 8
      vertex 14 12.25 8
    endloop
  endfacet
  facet normal 0 0 -1
    outer loop
      vertex 14 42.25 8
      vertex 17 45.5 8
      vertex 14 37.25 8
    endloop
  endfacet
  facet normal 0 0 -1
    outer loop
      vertex 3.77895 45.5 8
      vertex 14 42.25 8
      vertex 4 42.25 8
    endloop
  endfacet
  facet normal 0 0 -1
    outer loop
      vertex 14 42.25 8
      vertex 3.77895 45.5 8
      vertex 17 45.5 8
    endloop
  endfacet
  facet normal 0 0 -1
    outer loop
      vertex 4 37.25 8
      vertex 3.77895 45.5 8
      vertex 4 42.25 8
    endloop
  endfacet
  facet normal 0 0 -1
    outer loop
      vertex 14 12.25 8
      vertex 11 24.05 8
      vertex 14 37.25 8
    endloop
  endfacet
  facet normal 0 0 -1
    outer loop
      vertex 11 25.45 8
      vertex 14 37.25 8
      vertex 11 24.05 8
    endloop
  endfacet
  facet normal 0 0 -1
    outer loop
      vertex 11 27.5 8
      vertex 14 37.25 8
      vertex 11 25.45 8
    endloop
  endfacet
  facet normal 0 0 -1
    outer loop
      vertex 7 27.5 8
      vertex 14 37.25 8
      vertex 11 27.5 8
    endloop
  endfacet
  facet normal 0 0 -1
    outer loop
      vertex 7 27.5 8
      vertex 4 37.25 8
      vertex 14 37.25 8
    endloop
  endfacet
  facet normal 0 0 -1
    outer loop
      vertex 7 25.45 8
      vertex 4 37.25 8
      vertex 7 27.5 8
    endloop
  endfacet
  facet normal 0 0 -1
    outer loop
      vertex 5.5 39.25 8
      vertex 12.5 40.25 8
      vertex 12.5 39.25 8
    endloop
  endfacet
  facet normal -0 0 -1
    outer loop
      vertex 12.5 40.25 8
      vertex 5.5 39.25 8
      vertex 5.5 40.25 8
    endloop
  endfacet
  facet normal 0 0 -1
    outer loop
      vertex 5.5 9.25 8
      vertex 12.5 10.25 8
      vertex 12.5 9.25 8
    endloop
  endfacet
  facet normal -0 0 -1
    outer loop
      vertex 12.5 10.25 8
      vertex 5.5 9.25 8
      vertex 5.5 10.25 8
    endloop
  endfacet
  facet normal -1 0 0
    outer loop
      vertex 17 48.5 0
      vertex 17 4 8
      vertex 17 45.5 8
    endloop
  endfacet
  facet normal -1 0 -0
    outer loop
      vertex 17 4 8
      vertex 17 48.5 0
      vertex 17 1 0
    endloop
  endfacet
  facet normal 0.944631 0 -0.328135
    outer loop
      vertex 3.77895 4 8
      vertex 1 48.5 0
      vertex 3.77895 45.5 8
    endloop
  endfacet
  facet normal 0.944631 0 -0.328135
    outer loop
      vertex 1 48.5 0
      vertex 3.77895 4 8
      vertex 1 1 0
    endloop
  endfacet
  facet normal 1 -0 0
    outer loop
      vertex 11 25.45 8
      vertex 11 27.5 0
      vertex 11 27.5 8
    endloop
  endfacet
  facet normal 1 0 0
    outer loop
      vertex 11 27.5 0
      vertex 11 25.45 8
      vertex 11 25.45 0
    endloop
  endfacet
  facet normal 1 -0 0
    outer loop
      vertex 11 22 8
      vertex 11 24.05 0
      vertex 11 24.05 8
    endloop
  endfacet
  facet normal 1 0 0
    outer loop
      vertex 11 24.05 0
      vertex 11 22 8
      vertex 11 22 0
    endloop
  endfacet
  facet normal -1 0 0
    outer loop
      vertex 7 25.45 0
      vertex 7 27.5 8
      vertex 7 27.5 0
    endloop
  endfacet
  facet normal -1 -0 0
    outer loop
      vertex 7 27.5 8
      vertex 7 25.45 0
      vertex 7 25.45 8
    endloop
  endfacet
  facet normal -1 0 0
    outer loop
      vertex 7 22 0
      vertex 7 24.05 8
      vertex 7 24.05 0
    endloop
  endfacet
  facet normal -1 -0 0
    outer loop
      vertex 7 24.05 8
      vertex 7 22 0
      vertex 7 22 8
    endloop
  endfacet
  facet normal 0 1 -0
    outer loop
      vertex 11 27.5 0
      vertex 7 27.5 8
      vertex 11 27.5 8
    endloop
  endfacet
  facet normal 0 1 0
    outer loop
      vertex 7 27.5 8
      vertex 11 27.5 0
      vertex 7 27.5 0
    endloop
  endfacet
  facet normal 0 -1 0
    outer loop
      vertex 7 22 0
      vertex 11 22 8
      vertex 7 22 8
    endloop
  endfacet
  facet normal 0 -1 -0
    outer loop
      vertex 11 22 8
      vertex 7 22 0
      vertex 11 22 0
    endloop
  endfacet
  facet normal -1 0 0
    outer loop
      vertex 9.7 25.45 0
      vertex 9.7 26.9 8
      vertex 9.7 26.9 0
    endloop
  endfacet
  facet normal -1 -0 0
    outer loop
      vertex 9.7 26.9 8
      vertex 9.7 25.45 0
      vertex 9.7 25.45 8
    endloop
  endfacet
  facet normal -1 0 0
    outer loop
      vertex 9.7 22.6 0
      vertex 9.7 24.05 8
      vertex 9.7 24.05 0
    endloop
  endfacet
  facet normal -1 -0 0
    outer loop
      vertex 9.7 24.05 8
      vertex 9.7 22.6 0
      vertex 9.7 22.6 8
    endloop
  endfacet
  facet normal 1 -0 0
    outer loop
      vertex 8.3 25.45 8
      vertex 8.3 26.9 0
      vertex 8.3 26.9 8
    endloop
  endfacet
  facet normal 1 0 0
    outer loop
      vertex 8.3 26.9 0
      vertex 8.3 25.45 8
      vertex 8.3 25.45 0
    endloop
  endfacet
  facet normal 1 -0 0
    outer loop
      vertex 8.3 22.6 8
      vertex 8.3 24.05 0
      vertex 8.3 24.05 8
    endloop
  endfacet
  facet normal 1 0 0
    outer loop
      vertex 8.3 24.05 0
      vertex 8.3 22.6 8
      vertex 8.3 22.6 0
    endloop
  endfacet
  facet normal 0 1 -0
    outer loop
      vertex 9.7 22.6 0
      vertex 8.3 22.6 8
      vertex 9.7 22.6 8
    endloop
  endfacet
  facet normal 0 1 0
    outer loop
      vertex 8.3 22.6 8
      vertex 9.7 22.6 0
      vertex 8.3 22.6 0
    endloop
  endfacet
  facet normal 0 -1 0
    outer loop
      vertex 8.3 26.9 0
      vertex 9.7 26.9 8
      vertex 8.3 26.9 8
    endloop
  endfacet
  facet normal 0 -1 -0
    outer loop
      vertex 9.7 26.9 8
      vertex 8.3 26.9 0
      vertex 9.7 26.9 0
    endloop
  endfacet
  facet normal 0 1 -0
    outer loop
      vertex 11 24.05 0
      vertex 9.7 24.05 8
      vertex 11 24.05 8
    endloop
  endfacet
  facet normal 0 1 0
    outer loop
      vertex 9.7 24.05 8
      vertex 11 24.05 0
      vertex 9.7 24.05 0
    endloop
  endfacet
  facet normal 0 1 -0
    outer loop
      vertex 8.3 24.05 0
      vertex 7 24.05 8
      vertex 8.3 24.05 8
    endloop
  endfacet
  facet normal 0 1 0
    outer loop
      vertex 7 24.05 8
      vertex 8.3 24.05 0
      vertex 7 24.05 0
    endloop
  endfacet
  facet normal 0 -1 0
    outer loop
      vertex 9.7 25.45 0
      vertex 11 25.45 8
      vertex 9.7 25.45 8
    endloop
  endfacet
  facet normal 0 -1 -0
    outer loop
      vertex 11 25.45 8
      vertex 9.7 25.45 0
      vertex 11 25.45 0
    endloop
  endfacet
  facet normal 0 -1 0
    outer loop
      vertex 7 25.45 0
      vertex 8.3 25.45 8
      vertex 7 25.45 8
    endloop
  endfacet
  facet normal 0 -1 -0
    outer loop
      vertex 8.3 25.45 8
      vertex 7 25.45 0
      vertex 8.3 25.45 0
    endloop
  endfacet
  facet normal -1 0 0
    outer loop
      vertex 4 7.25 2
      vertex 4 12.25 8
      vertex 4 12.25 2
    endloop
  endfacet
  facet normal -1 -0 0
    outer loop
      vertex 4 12.25 8
      vertex 4 7.25 2
      vertex 4 7.25 8
    endloop
  endfacet
  facet normal 1 -0 0
    outer loop
      vertex 14 7.25 8
      vertex 14 12.25 2
      vertex 14 12.25 8
    endloop
  endfacet
  facet normal 1 0 0
    outer loop
      vertex 14 12.25 2
      vertex 14 7.25 8
      vertex 14 7.25 2
    endloop
  endfacet
  facet normal 0 1 -0
    outer loop
      vertex 14 12.25 2
      vertex 4 12.25 8
      vertex 14 12.25 8
    endloop
  endfacet
  facet normal 0 1 0
    outer loop
      vertex 4 12.25 8
      vertex 14 12.25 2
      vertex 4 12.25 2
    endloop
  endfacet
  facet normal 0 0 -1
    outer loop
      vertex 14 7.25 2
      vertex 12.5 9.25 2
      vertex 14 12.25 2
    endloop
  endfacet
  facet normal 0 0 -1
    outer loop
      vertex 14 7.25 2
      vertex 5.5 9.25 2
      vertex 12.5 9.25 2
    endloop
  endfacet
  facet normal -0 0 -1
    outer loop
      vertex 5.5 9.25 2
      vertex 4 7.25 2
      vertex 5.5 10.25 2
    endloop
  endfacet
  facet normal 0 0 -1
    outer loop
      vertex 4 7.25 2
      vertex 5.5 9.25 2
      vertex 14 7.25 2
    endloop
  endfacet
  facet normal 0 0 -1
    outer loop
      vertex 12.5 10.25 2
      vertex 14 12.25 2
      vertex 12.5 9.25 2
    endloop
  endfacet
  facet normal 0 0 -1
    outer loop
      vertex 5.5 10.25 2
      vertex 14 12.25 2
      vertex 12.5 10.25 2
    endloop
  endfacet
  facet normal 0 0 -1
    outer loop
      vertex 5.5 10.25 2
      vertex 4 12.25 2
      vertex 14 12.25 2
    endloop
  endfacet
  facet normal 0 0 -1
    outer loop
      vertex 4 12.25 2
      vertex 5.5 10.25 2
      vertex 4 7.25 2
    endloop
  endfacet
  facet normal 0 -1 0
    outer loop
      vertex 4 7.25 2
      vertex 14 7.25 8
      vertex 4 7.25 8
    endloop
  endfacet
  facet normal 0 -1 -0
    outer loop
      vertex 14 7.25 8
      vertex 4 7.25 2
      vertex 14 7.25 2
    endloop
  endfacet
  facet normal 1 -0 0
    outer loop
      vertex 5.5 9.25 8
      vertex 5.5 10.25 2
      vertex 5.5 10.25 8
    endloop
  endfacet
  facet normal 1 0 0
    outer loop
      vertex 5.5 10.25 2
      vertex 5.5 9.25 8
      vertex 5.5 9.25 2
    endloop
  endfacet
  facet normal -1 0 0
    outer loop
      vertex 12.5 9.25 2
      vertex 12.5 10.25 8
      vertex 12.5 10.25 2
    endloop
  endfacet
  facet normal -1 -0 0
    outer loop
      vertex 12.5 10.25 8
      vertex 12.5 9.25 2
      vertex 12.5 9.25 8
    endloop
  endfacet
  facet normal 0 -1 0
    outer loop
      vertex 5.5 10.25 2
      vertex 12.5 10.25 8
      vertex 5.5 10.25 8
    endloop
  endfacet
  facet normal 0 -1 -0
    outer loop
      vertex 12.5 10.25 8
      vertex 5.5 10.25 2
      vertex 12.5 10.25 2
    endloop
  endfacet
  facet normal 0 1 -0
    outer loop
      vertex 12.5 9.25 2
      vertex 5.5 9.25 8
      vertex 12.5 9.25 8
    endloop
  endfacet
  facet normal 0 1 0
    outer loop
      vertex 5.5 9.25 8
      vertex 12.5 9.25 2
      vertex 5.5 9.25 2
    endloop
  endfacet
  facet normal -1 0 0
    outer loop
      vertex 4 37.25 2
      vertex 4 42.25 8
      vertex 4 42.25 2
    endloop
  endfacet
  facet normal -1 -0 0
    outer loop
      vertex 4 42.25 8
      vertex 4 37.25 2
      vertex 4 37.25 8
    endloop
  endfacet
  facet normal 1 -0 0
    outer loop
      vertex 14 37.25 8
      vertex 14 42.25 2
      vertex 14 42.25 8
    endloop
  endfacet
  facet normal 1 0 0
    outer loop
      vertex 14 42.25 2
      vertex 14 37.25 8
      vertex 14 37.25 2
    endloop
  endfacet
  facet normal 0 1 -0
    outer loop
      vertex 14 42.25 2
      vertex 4 42.25 8
      vertex 14 42.25 8
    endloop
  endfacet
  facet normal 0 1 0
    outer loop
      vertex 4 42.25 8
      vertex 14 42.25 2
      vertex 4 42.25 2
    endloop
  endfacet
  facet normal 0 0 -1
    outer loop
      vertex 14 37.25 2
      vertex 12.5 39.25 2
      vertex 14 42.25 2
    endloop
  endfacet
  facet normal 0 0 -1
    outer loop
      vertex 14 37.25 2
      vertex 5.5 39.25 2
      vertex 12.5 39.25 2
    endloop
  endfacet
  facet normal -0 0 -1
    outer loop
      vertex 5.5 39.25 2
      vertex 4 37.25 2
      vertex 5.5 40.25 2
    endloop
  endfacet
  facet normal 0 0 -1
    outer loop
      vertex 4 37.25 2
      vertex 5.5 39.25 2
      vertex 14 37.25 2
    endloop
  endfacet
  facet normal 0 0 -1
    outer loop
      vertex 12.5 40.25 2
      vertex 14 42.25 2
      vertex 12.5 39.25 2
    endloop
  endfacet
  facet normal 0 0 -1
    outer loop
      vertex 5.5 40.25 2
      vertex 14 42.25 2
      vertex 12.5 40.25 2
    endloop
  endfacet
  facet normal 0 0 -1
    outer loop
      vertex 5.5 40.25 2
      vertex 4 42.25 2
      vertex 14 42.25 2
    endloop
  endfacet
  facet normal 0 0 -1
    outer loop
      vertex 4 42.25 2
      vertex 5.5 40.25 2
      vertex 4 37.25 2
    endloop
  endfacet
  facet normal 0 -1 0
    outer loop
      vertex 4 37.25 2
      vertex 14 37.25 8
      vertex 4 37.25 8
    endloop
  endfacet
  facet normal 0 -1 -0
    outer loop
      vertex 14 37.25 8
      vertex 4 37.25 2
      vertex 14 37.25 2
    endloop
  endfacet
  facet normal 1 -0 0
    outer loop
      vertex 5.5 39.25 8
      vertex 5.5 40.25 2
      vertex 5.5 40.25 8
    endloop
  endfacet
  facet normal 1 0 0
    outer loop
      vertex 5.5 40.25 2
      vertex 5.5 39.25 8
      vertex 5.5 39.25 2
    endloop
  endfacet
  facet normal -1 0 0
    outer loop
      vertex 12.5 39.25 2
      vertex 12.5 40.25 8
      vertex 12.5 40.25 2
    endloop
  endfacet
  facet normal -1 -0 0
    outer loop
      vertex 12.5 40.25 8
      vertex 12.5 39.25 2
      vertex 12.5 39.25 8
    endloop
  endfacet
  facet normal 0 -1 0
    outer loop
      vertex 5.5 40.25 2
      vertex 12.5 40.25 8
      vertex 5.5 40.25 8
    endloop
  endfacet
  facet normal 0 -1 -0
    outer loop
      vertex 12.5 40.25 8
      vertex 5.5 40.25 2
      vertex 12.5 40.25 2
    endloop
  endfacet
  facet normal 0 1 -0
    outer loop
      vertex 12.5 39.25 2
      vertex 5.5 39.25 8
      vertex 12.5 39.25 8
    endloop
  endfacet
  facet normal 0 1 0
    outer loop
      vertex 5.5 39.25 8
      vertex 12.5 39.25 2
      vertex 5.5 39.25 2
    endloop
  endfacet
endsolid OpenSCAD_Model
